<?xml version="1.0" encoding="UTF-8"?>
<svg version="1.1" xmlns="http://www.w3.org/2000/svg" width="122" height="37">
<path d="M0 0 C1.32 0 2.64 0 4 0 C4 1.65 4 3.3 4 5 C5.32 5 6.64 5 8 5 C8.99 6.485 8.99 6.485 10 8 C10.33 7.01 10.66 6.02 11 5 C12.32 5 13.64 5 15 5 C15.66 3.68 16.32 2.36 17 1 C20.375 0.875 20.375 0.875 24 1 C26 3 26 3 26.4375 5.375 C26 8 26 8 23.5 10.3125 C22.675 10.869375 21.85 11.42625 21 12 C23.475 12.495 23.475 12.495 26 13 C26 13.99 26 14.98 26 16 C22.37 16 18.74 16 15 16 C15 14.35 15 12.7 15 11 C19.10810811 7 19.10810811 7 22 7 C22 6.34 22 5.68 22 5 C19.69 5.33 17.38 5.66 15 6 C14.70996094 7.13888672 14.70996094 7.13888672 14.4140625 8.30078125 C14.02347656 9.79158203 14.02347656 9.79158203 13.625 11.3125 C13.36976562 12.29863281 13.11453125 13.28476562 12.8515625 14.30078125 C12 17 12 17 10 20 C6.875 20.1875 6.875 20.1875 4 20 C4 19.01 4 18.02 4 17 C4.99 17 5.98 17 7 17 C6.34 15.02 5.68 13.04 5 11 C4.67 12.65 4.34 14.3 4 16 C-3.25903614 17.45180723 -3.25903614 17.45180723 -6.5625 15.4375 C-8 13 -8 13 -7.875 9.875 C-7 7 -7 7 -5 5 C-3.68 5 -2.36 5 -1 5 C-0.67 3.35 -0.34 1.7 0 0 Z M-4 9 C-3.67 10.32 -3.34 11.64 -3 13 C-2.01 12.67 -1.02 12.34 0 12 C0 11.01 0 10.02 0 9 C-1.32 9 -2.64 9 -4 9 Z " fill="#000000" transform="translate(46,13)"/>
<path d="M0 0 C0 0.66 0 1.32 0 2 C-0.66 2 -1.32 2 -2 2 C-1.75443359 2.99580078 -1.75443359 2.99580078 -1.50390625 4.01171875 C-0.89396143 7.62883337 -0.89204487 11.15860708 -0.9375 14.8125 C-0.94201172 15.50537109 -0.94652344 16.19824219 -0.95117188 16.91210938 C-0.96286844 18.60811068 -0.98080076 20.30406703 -1 22 C-2.32 22 -3.64 22 -5 22 C-5.03738281 21.01257813 -5.07476562 20.02515625 -5.11328125 19.0078125 C-5.17902344 17.72648437 -5.24476562 16.44515625 -5.3125 15.125 C-5.37050781 13.84882813 -5.42851563 12.57265625 -5.48828125 11.2578125 C-5.65714844 10.18273437 -5.82601562 9.10765625 -6 8 C-9.87065158 5.41956561 -11.55471634 6.11094327 -16 7 C-16.99 7.495 -16.99 7.495 -18 8 C-18 6.35 -18 4.7 -18 3 C-19.65 2.67 -21.3 2.34 -23 2 C-23 1.34 -23 0.68 -23 0 C-14.25058126 -4.62270877 -8.84682322 -4.15259049 0 0 Z " fill="#000000" transform="translate(78,7)"/>
<path d="M0 0 C0.66 1.32 1.32 2.64 2 4 C2.66 4 3.32 4 4 4 C4 3.01 4 2.02 4 1 C5.32 1 6.64 1 8 1 C8 1.99 8 2.98 8 4 C8.99 4 9.98 4 11 4 C11 5.32 11 6.64 11 8 C10.01 8 9.02 8 8 8 C8 9.32 8 10.64 8 12 C8.99 12 9.98 12 11 12 C11 12.99 11 13.98 11 15 C8.625 15.125 8.625 15.125 6 15 C4 13 4 13 3.875 10.375 C3.91625 9.59125 3.9575 8.8075 4 8 C3.34 8 2.68 8 2 8 C2.12375 9.1446875 2.12375 9.1446875 2.25 10.3125 C2 13 2 13 0.375 14.875 C-2.81862551 16.38776998 -4.64702485 15.94757993 -8 15 C-8.66 14.34 -9.32 13.68 -10 13 C-10 12.01 -10 11.02 -10 10 C-7.23723823 10.52268466 -4.6739124 11.10869587 -2 12 C-2 11.34 -2 10.68 -2 10 C-4.31 9.34 -6.62 8.68 -9 8 C-9.6875 5.6875 -9.6875 5.6875 -10 3 C-7.7638263 -1.05306482 -4.16821004 -0.23593642 0 0 Z M-5 3 C-5.33 3.66 -5.66 4.32 -6 5 C-3.36 5.99 -0.72 6.98 2 8 C2 7.01 2 6.02 2 5 C-0.31 4.34 -2.62 3.68 -5 3 Z " fill="#000000" transform="translate(15,14)"/>
<path d="M0 0 C1.32 0 2.64 0 4 0 C4 5.28 4 10.56 4 16 C-3 17 -3 17 -5.4375 16 C-7.7765077 13.00607014 -7.40146051 10.68005464 -7 7 C-5 5 -5 5 -2.375 4.875 C-1.59125 4.91625 -0.8075 4.9575 0 5 C0 3.35 0 1.7 0 0 Z M-3 9 C-3 10.32 -3 11.64 -3 13 C-2.01 13 -1.02 13 0 13 C0 11.68 0 10.36 0 9 C-0.99 9 -1.98 9 -3 9 Z " fill="#000000" transform="translate(97,13)"/>
<path d="M0 0 C3.5625 0.1875 3.5625 0.1875 5.5625 2.1875 C6 4.5625 6 4.5625 5.5625 7.1875 C3.0625 9.5 3.0625 9.5 0.5625 11.1875 C2.2125 11.5175 3.8625 11.8475 5.5625 12.1875 C5.5625 13.1775 5.5625 14.1675 5.5625 15.1875 C1.9325 15.1875 -1.6975 15.1875 -5.4375 15.1875 C-5.4375 13.5375 -5.4375 11.8875 -5.4375 10.1875 C-1.32939189 6.1875 -1.32939189 6.1875 1.5625 6.1875 C1.5625 5.5275 1.5625 4.8675 1.5625 4.1875 C-0.7475 4.5175 -3.0575 4.8475 -5.4375 5.1875 C-4.31932898 0.23559976 -4.31932898 0.23559976 0 0 Z " fill="#F7901E" transform="translate(66.4375,13.8125)"/>
<path d="M0 0 C6.8359375 -0.1953125 6.8359375 -0.1953125 9 0 C11 2 11 2 11.1953125 4.1640625 C11.17210938 4.97617187 11.14890625 5.78828125 11.125 6.625 C11.10695313 7.44226563 11.08890625 8.25953125 11.0703125 9.1015625 C11.03550781 10.04128906 11.03550781 10.04128906 11 11 C9.68 11 8.36 11 7 11 C7 8.69 7 6.38 7 4 C6.01 4 5.02 4 4 4 C4 6.31 4 8.62 4 11 C2.68 11 1.36 11 0 11 C0 7.37 0 3.74 0 0 Z " fill="#000000" transform="translate(78,18)"/>
<path d="M0 0 C2.375 -0.125 2.375 -0.125 5 0 C7.39763185 2.39763185 7.34280586 3.33273498 7.625 6.625 C7.69976562 7.44226563 7.77453125 8.25953125 7.8515625 9.1015625 C7.92503906 10.04128906 7.92503906 10.04128906 8 11 C0.375 12.25 0.375 12.25 -3 10 C-2.67 8.35 -2.34 6.7 -2 5 C-1.01 4.67 -0.02 4.34 1 4 C0.01 4 -0.98 4 -2 4 C-1.34 2.68 -0.68 1.36 0 0 Z " fill="#000000" transform="translate(110,18)"/>
<path d="M0 0 C1.32 0 2.64 0 4 0 C4 2.64 4 5.28 4 8 C4.66 7.67 5.32 7.34 6 7 C6 5.02 6 3.04 6 1 C7.32 0.67 8.64 0.34 10 0 C10 3.63 10 7.26 10 11 C3.375 12.25 3.375 12.25 0 10 C-0.29296875 7.6171875 -0.29296875 7.6171875 -0.1875 4.875 C-0.16042969 3.96492188 -0.13335938 3.05484375 -0.10546875 2.1171875 C-0.07066406 1.41851563 -0.03585938 0.71984375 0 0 Z " fill="#000000" transform="translate(27,18)"/>
<path d="M0 0 C1.32 0 2.64 0 4 0 C4 3.63 4 7.26 4 11 C2.68 11 1.36 11 0 11 C0 7.37 0 3.74 0 0 Z " fill="#000000" transform="translate(102,18)"/>
<path d="M0 0 C1.32 0 2.64 0 4 0 C4 1.32 4 2.64 4 4 C2.68 4 1.36 4 0 4 C0 2.68 0 1.36 0 0 Z " fill="#000000" transform="translate(102,13)"/>
</svg>
